<?xml version="1.0" standalone="no"?>
<!DOCTYPE svg PUBLIC "-//W3C//DTD SVG 20010904//EN"
 "http://www.w3.org/TR/2001/REC-SVG-20010904/DTD/svg10.dtd">
<svg version="1.0" xmlns="http://www.w3.org/2000/svg"
 width="512.000000pt" height="512.000000pt" viewBox="0 0 512.000000 512.000000"
 preserveAspectRatio="xMidYMid meet">
<metadata>
Created by potrace 1.11, written by Peter Selinger 2001-2013
</metadata>
<g transform="translate(0.000000,512.000000) scale(0.100000,-0.100000)"
fill="#000000" stroke="none">
<path d="M750 4253 c-121 -31 -219 -112 -275 -227 -19 -39 -36 -87 -39 -107
-3 -21 -6 -639 -7 -1375 -1 -1242 0 -1343 16 -1389 50 -148 166 -255 311 -288
49 -11 365 -13 1824 -12 1928 2 1800 -2 1902 58 101 59 187 183 204 293 4 27
7 646 7 1376 l0 1327 -27 73 c-43 119 -127 205 -248 257 l-63 26 -1776 1
c-1464 1 -1785 -2 -1829 -13z m2448 -1480 l-3 -426 -1145 1 c-630 0 -1157 1
-1171 1 l-26 1 0 425 0 425 1174 0 1173 0 -2 -427z m1068 -533 l0 -960 -426 0
-427 0 0 953 c0 523 2 955 4 960 2 4 194 7 427 7 l422 0 0 -960z m-1066 -532
l0 -428 -1173 0 -1174 0 0 428 0 427 1174 0 1173 0 0 -427z"/>
</g>
</svg>
